<?xml version="1.0" encoding="UTF-8"?><svg xmlns="http://www.w3.org/2000/svg" viewBox="0 0 24 24"><defs><style>.v{fill:#231f20;}</style></defs><g id="a"/><g id="b"/><g id="c"/><g id="d"/><g id="e"><g><path class="v" d="M20.31,3.6c-2.82-2.74-8.69-1.21-13.35,3.5-2.94,2.96-4.74,6.64-4.71,9.6,.01,1.52,.51,2.81,1.44,3.7,.95,.92,2.23,1.36,3.7,1.36,2.92,0,6.55-1.73,9.65-4.86,2.94-2.96,4.74-6.64,4.71-9.6-.01-1.52-.51-2.81-1.44-3.7ZM4.73,19.33c-.64-.62-.97-1.51-.98-2.64,0-.69,.12-1.43,.34-2.2l5.51,5.4c-2.01,.6-3.8,.47-4.86-.56Zm11.24-3.48h0c-1.51,1.53-3.2,2.7-4.84,3.45l-6.47-6.35c.74-1.63,1.89-3.3,3.37-4.8,1.25-1.26,2.62-2.26,3.97-3l6.83,6.7s.06,.03,.08,.05c-.73,1.35-1.72,2.71-2.94,3.94Zm3.62-5.36l-6.15-6.03c1.14-.46,2.23-.71,3.2-.71,1.07,0,1.98,.3,2.63,.92,.64,.62,.97,1.51,.98,2.64,0,.98-.23,2.06-.66,3.17Z"/><path class="v" d="M14.15,10.86l.42-.43c.29-.3,.29-.77-.01-1.06-.3-.29-.77-.29-1.06,0l-.42,.43-.44-.43c-.3-.29-.77-.29-1.06,0-.29,.3-.29,.77,.01,1.06l.44,.43-.37,.38-.44-.43c-.3-.29-.77-.29-1.06,0-.29,.3-.29,.77,0,1.06l.44,.43-.37,.38-.44-.43c-.3-.29-.77-.29-1.06,0-.29,.3-.29,.77,0,1.06l.44,.43-.42,.43c-.29,.3-.29,.77,.01,1.06,.15,.14,.34,.21,.53,.21s.39-.08,.54-.22l.42-.43,.44,.43c.15,.14,.34,.21,.53,.21s.39-.08,.54-.22c.29-.3,.29-.77,0-1.06l-.44-.43,.37-.38,.44,.43c.15,.14,.34,.21,.53,.21s.39-.08,.54-.22c.29-.3,.29-.77,0-1.06l-.44-.43,.37-.38,.44,.43c.15,.14,.34,.21,.53,.21s.39-.08,.54-.22c.29-.3,.29-.77-.01-1.06l-.44-.43Z"/></g></g><g id="f"/><g id="g"/><g id="h"/><g id="i"/><g id="j"/><g id="k"/><g id="l"/><g id="m"/><g id="n"/><g id="o"/><g id="p"/><g id="q"/><g id="r"/><g id="s"/><g id="t"/><g id="u"/></svg>