<?xml version="1.0" encoding="UTF-8"?><svg xmlns="http://www.w3.org/2000/svg" viewBox="0 0 24 24"><defs><style>.v{fill:#231f20;}</style></defs><g id="a"/><g id="b"/><g id="c"/><g id="d"/><g id="e"/><g id="f"/><g id="g"/><g id="h"/><g id="i"/><g id="j"/><g id="k"/><g id="l"/><g id="m"/><g id="n"/><g id="o"><path class="v" d="M20.49,10.61l-.65-.22c-.6-.2-1-.76-1-1.39v-1.99c0-1.02-.83-1.86-1.86-1.86h-1.99c-.63,0-1.19-.4-1.39-1l-.22-.65c-.24-.71-.88-1.21-1.63-1.26-.75-.06-1.46,.35-1.79,1.02L4.95,13.29l-1.48,1.48c-.77,.77-1.19,1.79-1.19,2.88s.42,2.11,1.19,2.88c.79,.79,1.84,1.19,2.88,1.19s2.08-.4,2.88-1.19l1.48-1.48,10.03-5.01c.67-.34,1.07-1.04,1.02-1.79-.05-.75-.55-1.39-1.26-1.63Zm-3.51-3.96c.2,0,.36,.16,.36,.36v1.99c0,.37,.07,.72,.2,1.05l-6.36,3.53-.77-.77,3.54-6.36c.33,.12,.68,.2,1.04,.2h1.99Zm-6.57,10.86l-3.93-3.93,.86-1.72,4.79,4.79-1.72,.86Zm.89-13.58c.1-.19,.27-.2,.34-.2,.07,0,.25,.04,.31,.24l.22,.65c.12,.36,.31,.68,.54,.95l-3.41,6.14-1.26-1.26,3.26-6.52Zm-6.77,15.53c-.49-.49-.75-1.13-.75-1.82s.27-1.33,.75-1.82l1.04-1.04,3.64,3.64-1.04,1.04c-1,1-2.63,1-3.64,0Zm15.53-6.77l-6.52,3.26-1.26-1.26,6.14-3.41c.28,.23,.59,.42,.95,.54l.65,.22c.2,.07,.24,.24,.24,.31,0,.07,0,.25-.2,.35Z"/></g><g id="p"/><g id="q"/><g id="r"/><g id="s"/><g id="t"/><g id="u"/></svg>