<?xml version="1.0" encoding="UTF-8"?><svg xmlns="http://www.w3.org/2000/svg" viewBox="0 0 24 24"><defs><style>.v{fill:#231f20;}</style></defs><g id="a"/><g id="b"/><g id="c"/><g id="d"/><g id="e"/><g id="f"/><g id="g"/><g id="h"/><g id="i"/><g id="j"/><g id="k"/><g id="l"/><g id="m"/><g id="n"/><g id="o"/><g id="p"/><g id="q"><g><path class="v" d="M16.43,13.25c-1.79,0-3.25,1.46-3.25,3.25s1.46,3.25,3.25,3.25,3.25-1.46,3.25-3.25-1.46-3.25-3.25-3.25Zm0,5c-.96,0-1.75-.79-1.75-1.75s.79-1.75,1.75-1.75,1.75,.79,1.75,1.75-.79,1.75-1.75,1.75Z"/><path class="v" d="M19.41,8.41c.73-.61,1.17-1.51,1.22-2.46,.04-.96-.32-1.91-1-2.6-.68-.69-1.63-1.07-2.58-1.03-.95,.03-1.86,.46-2.48,1.18L4.83,14.73c-.67-.31-1.52-.21-2.06,.33l-.13,.13c-.34,.34-.53,.79-.53,1.27s.19,.93,.53,1.27l2.37,2.37c.34,.34,.79,.53,1.27,.53s.93-.19,1.27-.53l.13-.13c.34-.34,.53-.79,.53-1.27,0-.26-.06-.5-.16-.73l11.36-9.55Zm-3.71-3.93c.36-.41,.85-.64,1.4-.66,.53-.03,1.07,.19,1.46,.59,.39,.4,.59,.92,.57,1.47-.03,.54-.27,1.04-.68,1.39l-8.45,7.1-1.54-1.54L15.7,4.48ZM7.47,13.97l1.37,1.37-1.7,1.43-1.12-1.12,1.46-1.68Zm-.85,4.94l-.13,.13c-.15,.15-.27,.15-.42,0h0l-2.37-2.37c-.08-.07-.09-.16-.09-.21s.01-.13,.09-.21l.13-.13c.08-.08,.16-.09,.21-.09s.13,.01,.21,.09l2.37,2.37c.08,.07,.09,.16,.09,.21s-.01,.13-.09,.21Z"/></g></g><g id="r"/><g id="s"/><g id="t"/><g id="u"/></svg>