<?xml version="1.0" encoding="UTF-8"?><svg xmlns="http://www.w3.org/2000/svg" viewBox="0 0 24 24"><defs><style>.v{fill:#231f20;}</style></defs><g id="a"/><g id="b"/><g id="c"/><g id="d"/><g id="e"/><g id="f"/><g id="g"/><g id="h"/><g id="i"/><g id="j"/><g id="k"/><g id="l"/><g id="m"/><g id="n"/><g id="o"/><g id="p"/><g id="q"/><g id="r"/><g id="s"/><g id="t"><path class="v" d="M18.89,5.11c-1.84-1.84-4.29-2.86-6.89-2.86s-5.05,1.01-6.89,2.86c-1.84,1.84-2.86,4.29-2.86,6.89s1.01,5.05,2.86,6.89c1.84,1.84,4.29,2.86,6.89,2.86s5.05-1.01,6.89-2.86c1.84-1.84,2.86-4.29,2.86-6.89s-1.01-5.05-2.86-6.89Zm-.56,12.17l-5.28-5.28,1.79-1.79c1.07,.92,2.86,2.1,5.36,2.5-.14,1.69-.79,3.27-1.88,4.57ZM3.79,12.81c1.07,.2,2.73,.73,4.29,2.05l-2.42,2.42c-1.06-1.27-1.71-2.82-1.87-4.47Zm1.87-6.09l5.28,5.28-1.8,1.8c-1.98-1.72-4.11-2.31-5.36-2.51,.14-1.69,.79-3.27,1.88-4.56Zm9.19,1.36c-1.32-1.56-1.85-3.22-2.05-4.29,1.65,.16,3.2,.81,4.47,1.87l-2.42,2.42Zm-1.06,1.06l-1.8,1.8L6.72,5.66c1.3-1.08,2.88-1.73,4.56-1.88,.2,1.24,.79,3.38,2.51,5.36Zm-4.65,6.77c.75,.89,1.67,2.33,2.04,4.3-1.65-.16-3.19-.81-4.46-1.87l2.42-2.42Zm1.06-1.06l1.79-1.79,5.28,5.28c-1.3,1.09-2.88,1.73-4.57,1.88-.4-2.5-1.58-4.3-2.5-5.36Zm5.71-5.71l2.42-2.42c1.06,1.27,1.71,2.81,1.87,4.46-1.97-.37-3.41-1.28-4.3-2.04Z"/></g><g id="u"/></svg>