<?xml version="1.0" encoding="UTF-8"?><svg xmlns="http://www.w3.org/2000/svg" viewBox="0 0 24 24"><defs><style>.v{fill:#231f20;}</style></defs><g id="a"/><g id="b"/><g id="c"/><g id="d"/><g id="e"/><g id="f"/><g id="g"/><g id="h"/><g id="i"/><g id="j"/><g id="k"/><g id="l"/><g id="m"><g><path class="v" d="M20.29,15.04c-.18-.64-.32-1.14-.59-1.87-.36-1-.64-1.56-.85-1.96-.22-.44-.34-.68-.46-1.23-.02-.09-.05-.23-.08-.4-.14-.83-.08-1.69-.08-1.71,.06-.86,.21-1.42,.34-1.88,.05-.17,.09-.33,.12-.46,.1-.39,.16-.87-.09-1.45-.24-.57-.7-1.05-1.4-1.42-.11-.06-.22-.11-.34-.16l-.21-.07c-.08-.02-.15-.05-.23-.07-.06-.02-.13-.03-.24-.05-.08-.01-.15-.03-.23-.04-.06,0-.12-.01-.24-.02-.04,0-.09,0-.22,0-.03,0-.09,0-.12,0-.04,0-.09,0-.16,.01-.07,0-.14,.01-.21,.02-.07,0-.15,.02-.28,.05-.06,.01-.13,.03-.2,.04-.07,.02-.15,.04-.28,.09-.05,.02-.1,.03-.15,.05-.12,.05-.23,.1-.41,.19-.63,.34-1.09,.82-1.32,1.38-.25,.58-.19,1.06-.09,1.44,.03,.15,.08,.3,.12,.47,.13,.46,.28,1.02,.34,1.88,0,0,.06,.87-.08,1.7-.03,.17-.06,.3-.08,.4-.07,.34-.15,.56-.25,.79-1.3-.58-2.74-.69-4.1-.25-1.46,.47-2.66,1.48-3.36,2.84-1.45,2.82-.34,6.29,2.48,7.74,.83,.43,1.72,.64,2.63,.64,.59,0,1.18-.09,1.76-.28,.22-.07,.41-.17,.62-.27,.41,.27,.83,.44,1.28,.52,.14,.02,.99,.04,1.85,.04s1.71-.01,1.85-.04c1.5-.26,2.42-1.54,2.74-2.08,.21-.36,.58-1.1,.66-2.07,.03-.36,.02-.89-.45-2.54ZM13.77,4.67c.1-.25,.33-.48,.69-.67,.07-.03,.14-.07,.21-.1l.14-.05,.6-.11s.14,0,.16,0c0,0,.1,0,.11,0l.53,.11,.12,.04c.07,.03,.13,.06,.25,.11,.32,.17,.55,.4,.66,.66,.06,.14,.07,.24,0,.52-.03,.12-.06,.26-.1,.4-.05,.18-.11,.41-.16,.65h-2.94c-.06-.24-.11-.46-.16-.65-.04-.15-.08-.28-.11-.42-.07-.26-.05-.36,.01-.51Zm-5.72,15.11c-2.08-1.07-2.91-3.64-1.83-5.72,.52-1.01,1.4-1.76,2.48-2.1,.43-.14,.86-.2,1.3-.2,.67,0,1.33,.16,1.94,.47,2.08,1.07,2.91,3.64,1.83,5.72-.52,1.01-1.4,1.76-2.48,2.1-1.08,.35-2.23,.25-3.24-.27Zm11.19-2.3c-.05,.66-.3,1.16-.44,1.41-.12,.2-.77,1.21-1.67,1.37-.29,.02-2.98,.02-3.23,0-.01,0-.02,0-.04-.01,.5-.45,.93-.99,1.25-1.6,1.26-2.45,.58-5.4-1.47-7.08,.16-.34,.3-.69,.42-1.24,.03-.12,.06-.28,.09-.48,.16-1,.1-2.01,.09-2.05v-.03h2.5v.02s-.07,1.05,.09,2.05c.03,.21,.07,.37,.09,.48,.16,.73,.35,1.11,.59,1.58,.2,.39,.44,.88,.78,1.8,.25,.68,.38,1.13,.55,1.77,.43,1.54,.41,1.89,.4,2.03Z"/><path class="v" d="M12,13.1h0c-.41,0-.75,.34-.75,.75s.34,.75,.75,.75,.75-.34,.75-.75-.33-.75-.75-.75Z"/><path class="v" d="M10.07,14.36h0c-.41,0-.75,.34-.75,.75s.34,.75,.75,.75,.75-.34,.75-.75-.33-.75-.75-.75Z"/><polygon class="v" points="12 16.12 12 16.11 12 16.11 12 16.11 12 16.12"/></g></g><g id="n"/><g id="o"/><g id="p"/><g id="q"/><g id="r"/><g id="s"/><g id="t"/><g id="u"/></svg>