<?xml version="1.0" encoding="UTF-8"?><svg xmlns="http://www.w3.org/2000/svg" viewBox="0 0 24 24"><defs><style>.v{fill:#231f20;}</style></defs><g id="a"/><g id="b"/><g id="c"><path class="v" d="M18.75,15.23v-7.03c0-3.28-2.67-5.96-5.96-5.96h-1.59c-3.28,0-5.96,2.67-5.96,5.96v1.99c0,.86,.31,1.65,.81,2.26-1.23,.46-2.1,1.65-2.1,3.04,0,.87,.34,1.68,.95,2.3,.38,.38,.84,.64,1.34,.79v1.05c0,1.16,.95,2.11,2.11,2.11h7.29c1.16,0,2.11-.95,2.11-2.11v-1.64c0-.09-.02-.18-.05-.27,.65-.64,1.05-1.52,1.05-2.5Zm-13.29,.27c0-.96,.79-1.75,1.75-1.75h2.42c.41,0,.75,.34,.75,.75s-.34,.75-.75,.75h-.63c-.41,0-.75,.34-.75,.75s.34,.75,.75,.75h.63c1.24,0,2.25-1.01,2.25-2.25,0-.26-.05-.52-.13-.75,1.99-.06,3.53-1.58,3.53-3.52,0-.41-.34-.75-.75-.75s-.75,.34-.75,.75c0,1.15-.92,2.02-2.15,2.02h-2.84c-1.13,0-2.05-.92-2.05-2.05v-1.99c0-2.46,2-4.46,4.46-4.46h1.59c2.46,0,4.46,2,4.46,4.46v7.03c0,1.11-.9,2.01-2.01,2.01H7.21c-.47,0-.91-.18-1.24-.51s-.51-.77-.51-1.24Zm10.79,4.14c0,.33-.27,.61-.61,.61h-7.29c-.33,0-.61-.27-.61-.61v-.89h8.5v.89Z"/></g><g id="d"/><g id="e"/><g id="f"/><g id="g"/><g id="h"/><g id="i"/><g id="j"/><g id="k"/><g id="l"/><g id="m"/><g id="n"/><g id="o"/><g id="p"/><g id="q"/><g id="r"/><g id="s"/><g id="t"/><g id="u"/></svg>