<?xml version="1.0" encoding="UTF-8"?><svg xmlns="http://www.w3.org/2000/svg" viewBox="0 0 24 24"><defs><style>.v{fill:#231f20;}</style></defs><g id="a"/><g id="b"/><g id="c"/><g id="d"/><g id="e"/><g id="f"/><g id="g"/><g id="h"/><g id="i"/><g id="j"><g><path class="v" d="M10.12,13.94l.88-.88,.88,.88c.52,.52,1.21,.81,1.94,.81h2.17c1.52,0,2.75-1.23,2.75-2.75v-1c0-2.07-1.68-3.75-3.75-3.75H7c-2.07,0-3.75,1.68-3.75,3.75v1c0,1.52,1.23,2.75,2.75,2.75h2.17c.73,0,1.43-.29,1.94-.81Zm-5.37-1.94v-1c0-1.24,1.01-2.25,2.25-2.25H15c1.24,0,2.25,1.01,2.25,2.25v1c0,.69-.56,1.25-1.25,1.25h-2.17c-.33,0-.65-.13-.88-.37l-1.41-1.41c-.15-.15-.34-.22-.53-.22s-.38,.07-.53,.22l-1.41,1.41c-.24,.24-.55,.37-.88,.37h-2.17c-.69,0-1.25-.56-1.25-1.25Z"/><path class="v" d="M21,4.25c-.41,0-.75,.34-.75,.75V14c0,1.24-1.01,2.25-2.25,2.25h-2.43c-.28-.59-.88-1-1.57-1h-6c-.96,0-1.75,.79-1.75,1.75v1c0,.96,.79,1.75,1.75,1.75h6c.96,0,1.75-.79,1.75-1.75v-.25h2.25c2.07,0,3.75-1.68,3.75-3.75V5c0-.41-.34-.75-.75-.75Zm-6.75,13.75c0,.14-.11,.25-.25,.25h-6c-.14,0-.25-.11-.25-.25v-1c0-.14,.11-.25,.25-.25h6c.14,0,.25,.11,.25,.25v1Z"/></g></g><g id="k"/><g id="l"/><g id="m"/><g id="n"/><g id="o"/><g id="p"/><g id="q"/><g id="r"/><g id="s"/><g id="t"/><g id="u"/></svg>