<?xml version="1.0" encoding="UTF-8"?><svg xmlns="http://www.w3.org/2000/svg" viewBox="0 0 24 24"><defs><style>.v{fill:#231f20;}</style></defs><g id="a"/><g id="b"/><g id="c"/><g id="d"/><g id="e"/><g id="f"/><g id="g"/><g id="h"/><g id="i"/><g id="j"/><g id="k"/><g id="l"/><g id="m"/><g id="n"><g><path class="v" d="M18,10.27h-1.25v-1.25c0-.41-.34-.75-.75-.75s-.75,.34-.75,.75v1.25h-1.25c-.41,0-.75,.34-.75,.75s.34,.75,.75,.75h1.25v1.25c0,.41,.34,.75,.75,.75s.75-.34,.75-.75v-1.25h1.25c.41,0,.75-.34,.75-.75s-.34-.75-.75-.75Z"/><path class="v" d="M10.02,10.27h-.01c-.41,0-.74,.34-.74,.75s.34,.75,.75,.75,.75-.34,.75-.75-.34-.75-.75-.75Z"/><path class="v" d="M6,10.27h-.01c-.41,0-.74,.34-.74,.75s.34,.75,.75,.75,.75-.34,.75-.75-.34-.75-.75-.75Z"/><path class="v" d="M7.94,8.27h-.01c-.41,0-.74,.34-.74,.75s.34,.75,.75,.75,.75-.34,.75-.75-.34-.75-.75-.75Z"/><path class="v" d="M7.94,12.27h-.01c-.41,0-.74,.34-.74,.75s.34,.75,.75,.75,.75-.34,.75-.75-.34-.75-.75-.75Z"/><path class="v" d="M19.93,7.33c-.35-.67-.82-1.42-1.7-1.8-.84-.37-1.75-.28-2.41-.21-.33,.04-.75,.09-1.29,.27-.18,.06-.36,.13-.52,.2-1.38,.59-2.64,.59-4.02,0-.16-.07-.34-.14-.52-.2-.56-.18-.98-.24-1.29-.27-.47-.05-1.56-.16-2.45,.25-.79,.36-1.21,1.01-1.54,1.65-1.17,2.27-2.94,5.7-1.23,9.12,.3,.59,.69,1.15,1.17,1.66h0c.46,.49,1.08,.75,1.73,.75,.07,0,.14,0,.21,0,.16-.01,.38-.04,.66-.15,.77-.28,1.21-.79,1.6-1.24,.21-.24,.41-.47,.66-.68,.32-.26,.71-.46,1.09-.59,.6-.13,1.22-.21,1.83-.21,.66,0,1.32,.06,1.91,.18,.4,.12,.75,.3,1.02,.53,.19,.16,.35,.35,.53,.56,.25,.29,.53,.62,.97,.98,.22,.17,.56,.42,1.08,.53,.21,.05,.44,.06,.67,.05,.42-.02,1.07-.16,1.76-.71,.63-.5,.92-1.13,1.15-1.64l.08-.17c1.62-3.44-.12-6.82-1.16-8.85Zm-.2,8.21l-.08,.18c-.19,.42-.38,.82-.72,1.09-.38,.3-.7,.38-.9,.39-.13,0-.25-.01-.27-.02-.2-.04-.35-.14-.46-.24-.33-.26-.54-.51-.76-.77-.21-.24-.42-.49-.71-.74-.44-.37-.96-.64-1.62-.83-.75-.16-1.52-.23-2.29-.23-.72,0-1.44,.09-2.2,.27-.63,.2-1.18,.49-1.65,.87-.35,.29-.62,.59-.85,.86-.34,.39-.58,.66-.99,.82-.11,.04-.19,.05-.27,.06-.26,.03-.53-.08-.72-.28-.38-.4-.69-.84-.92-1.3-1.38-2.73,.12-5.64,1.22-7.76,.25-.48,.47-.81,.83-.98,.52-.24,1.33-.16,1.68-.12,.25,.02,.56,.07,.98,.2,.14,.05,.27,.1,.4,.15,1.76,.76,3.45,.75,5.2,0,.12-.05,.26-.1,.4-.15,.39-.13,.67-.17,.98-.21,.55-.06,1.16-.12,1.64,.09,.43,.19,.69,.57,.97,1.12,.97,1.89,2.44,4.75,1.14,7.52Z"/></g></g><g id="o"/><g id="p"/><g id="q"/><g id="r"/><g id="s"/><g id="t"/><g id="u"/></svg>