<?xml version="1.0" encoding="UTF-8"?><svg xmlns="http://www.w3.org/2000/svg" viewBox="0 0 24 24"><defs><style>.v{fill:#231f20;}</style></defs><g id="a"/><g id="b"/><g id="c"/><g id="d"/><g id="e"/><g id="f"/><g id="g"/><g id="h"/><g id="i"/><g id="j"/><g id="k"/><g id="l"/><g id="m"/><g id="n"/><g id="o"/><g id="p"/><g id="q"/><g id="r"><g><path class="v" d="M19.72,16.13c-.15-1.68-.86-3.19-1.93-4.39l.93-5.86c.15-.93-.11-1.88-.72-2.58-.57-.67-1.39-1.05-2.24-1.05h-7.5c-.86,0-1.67,.38-2.24,1.05-.6,.71-.87,1.65-.72,2.58l.93,5.86c-1.26,1.4-1.97,3.22-1.97,5.11,0,.81,.13,1.6,.38,2.36,.5,1.52,1.93,2.54,3.56,2.54h7.64c1.63,0,3.06-1.02,3.55-2.54,.32-.99,.44-2.03,.34-3.08ZM7.15,4.27c.29-.34,.68-.52,1.1-.52h7.5c.42,0,.82,.19,1.1,.52,.32,.37,.46,.87,.38,1.37l-.78,4.92c-.37-.26-.76-.48-1.17-.67l.45-3.6c.07-.54-.09-1.09-.44-1.48-.32-.36-.75-.56-1.22-.56h-4.15c-.46,0-.9,.2-1.22,.56-.35,.4-.51,.94-.44,1.48l.45,3.61c-.41,.19-.8,.41-1.17,.67l-.78-4.93c-.08-.5,.06-1,.38-1.37Zm3.02,5.13l-.41-3.3c-.01-.12,.02-.23,.08-.31,.02-.02,.05-.05,.09-.05h4.15s.07,.03,.09,.05c.07,.07,.1,.19,.08,.31l-.41,3.29c-.31-.07-.63-.14-.96-.17-.92-.1-1.83-.03-2.71,.18Zm7.78,9.34c-.29,.9-1.15,1.5-2.13,1.5h-7.64c-.98,0-1.84-.6-2.13-1.51-.2-.61-.3-1.25-.3-1.9,0-1.74,.75-3.4,2.05-4.57,1.17-1.05,2.63-1.6,4.19-1.6,.24,0,.48,.01,.72,.04,2.88,.31,5.25,2.7,5.51,5.55,.08,.85-.01,1.69-.27,2.48Z"/><path class="v" d="M12,13.25c-1.52,0-2.75,1.23-2.75,2.75s1.23,2.75,2.75,2.75,2.75-1.23,2.75-2.75-1.23-2.75-2.75-2.75Zm0,4c-.69,0-1.25-.56-1.25-1.25s.56-1.25,1.25-1.25,1.25,.56,1.25,1.25-.56,1.25-1.25,1.25Z"/></g></g><g id="s"/><g id="t"/><g id="u"/></svg>