<?xml version="1.0" encoding="UTF-8"?><svg xmlns="http://www.w3.org/2000/svg" viewBox="0 0 24 24"><defs><style>.v{fill:#231f20;}</style></defs><g id="a"/><g id="b"/><g id="c"/><g id="d"/><g id="e"/><g id="f"/><g id="g"/><g id="h"><path class="v" d="M20.83,6.77l-3.61-3.61c-.79-.79-2.08-.79-2.86,0-.2,.2-.35,.43-.45,.69-.68-.18-1.43-.01-1.96,.51-.38,.38-.59,.89-.59,1.43s.21,1.05,.59,1.43l.97,.97-4.95,4.95-.97-.97c-.77-.77-2.1-.76-2.86,0-.38,.38-.59,.89-.59,1.43,0,.18,.03,.35,.08,.52-.25,.1-.48,.25-.69,.45-.38,.38-.59,.89-.59,1.43s.21,1.05,.59,1.43l3.61,3.61c.38,.38,.89,.59,1.43,.59s1.05-.21,1.43-.59c.2-.2,.35-.44,.45-.69,.17,.05,.34,.08,.52,.08,.54,0,1.05-.21,1.43-.59s.59-.89,.59-1.43-.21-1.05-.59-1.43l-.97-.97,4.95-4.95,.97,.97c.38,.38,.89,.59,1.43,.59s1.05-.21,1.43-.59c.38-.38,.59-.89,.59-1.43,0-.18-.03-.35-.08-.52,.25-.1,.48-.25,.69-.45h0c.79-.79,.79-2.08,0-2.87Zm-5.41-2.55c.1-.1,.23-.15,.37-.15s.27,.05,.37,.15l3.61,3.61c.21,.21,.21,.54,0,.74s-.54,.2-.74,0l-3.61-3.61c-.1-.1-.15-.23-.15-.37s.05-.27,.15-.37Zm-7.08,15.78h0c-.2,.2-.54,.2-.74,0l-3.61-3.61c-.1-.1-.15-.23-.15-.37s.05-.27,.15-.37,.23-.15,.37-.15,.27,.05,.37,.15l3.61,3.61c.21,.21,.21,.54,0,.74Zm2.41-1.2c-.2,.2-.55,.2-.74,0l-4.81-4.81c-.1-.1-.15-.23-.15-.37s.05-.27,.15-.37,.24-.15,.37-.15,.27,.05,.37,.15l1.5,1.5,1.8,1.8,1.5,1.5c.21,.21,.21,.54,0,.74Zm3.98-8.79l-4.95,4.95-.74-.74,4.95-4.95,.37,.37,.37,.37Zm3.84,.97h0c-.2,.2-.54,.2-.74,0l-4.81-4.81c-.21-.21-.21-.54,0-.74,.1-.1,.24-.15,.37-.15s.27,.05,.37,.15l.6,.6h0l3.61,3.61h0l.6,.6c.21,.21,.21,.54,0,.74Z"/></g><g id="i"/><g id="j"/><g id="k"/><g id="l"/><g id="m"/><g id="n"/><g id="o"/><g id="p"/><g id="q"/><g id="r"/><g id="s"/><g id="t"/><g id="u"/></svg>