<?xml version="1.0" encoding="UTF-8"?><svg xmlns="http://www.w3.org/2000/svg" viewBox="0 0 24 24"><defs><style>.v{fill:#231f20;}</style></defs><g id="a"/><g id="b"/><g id="c"/><g id="d"/><g id="e"/><g id="f"/><g id="g"><path class="v" d="M21.66,7.09c-.2-.36-.66-.49-1.02-.29l-.42,.23c-2.06-3.36-5.71-5.13-9.54-4.6C6.35,3.01,2.92,6.58,2.34,11.09c-.4,3.11,.55,6.18,2.61,8.42,.14,.16,.34,.24,.55,.24h4.97c.59,0,1.15-.25,1.55-.7,.42-.46,.62-1.09,.55-1.71l-.17-1.59h1.12l.96,3.54c.23,.86,1.02,1.46,1.92,1.46h3.59c.41,0,.75-.34,.75-.75s-.34-.75-.75-.75h-.25v-3.5h.25c.41,0,.75-.34,.75-.75s-.34-.75-.75-.75h-5.33l-.56-2.06c-.02-.09-.07-.16-.11-.23l6.35-3.29h.02l1-.56c.36-.2,.49-.66,.29-1.02Zm-3.41,8.66v3.5h-1.84c-.22,0-.41-.15-.47-.36l-.86-3.14h3.17Zm-6-1.5l-.05-.51c-.05-.43,.15-.84,.49-1.08l.43,1.58h-.87Zm-.12-3.01c-.97,.49-1.54,1.55-1.43,2.66l.38,3.6c.02,.2-.04,.41-.17,.55-.07,.07-.21,.2-.43,.2H5.84c-1.61-1.89-2.34-4.42-2.01-6.97,.49-3.78,3.45-6.88,7.05-7.37,3.2-.44,6.25,1.02,8.01,3.82l-6.76,3.51Z"/></g><g id="h"/><g id="i"/><g id="j"/><g id="k"/><g id="l"/><g id="m"/><g id="n"/><g id="o"/><g id="p"/><g id="q"/><g id="r"/><g id="s"/><g id="t"/><g id="u"/></svg>