<?xml version="1.0" encoding="UTF-8"?><svg xmlns="http://www.w3.org/2000/svg" viewBox="0 0 24 24"><defs><style>.v{fill:#231f20;}</style></defs><g id="a"/><g id="b"/><g id="c"/><g id="d"/><g id="e"/><g id="f"/><g id="g"/><g id="h"/><g id="i"/><g id="j"/><g id="k"><g><path class="v" d="M21.36,4.74c-.45-.68-1.21-1.06-2.04-1.05-.82,.03-1.55,.47-1.96,1.18l-6.14,10.74c-.22,.39-.64,.63-1.08,.63h-2.28c-.85,0-1.64,.39-2.17,1.06-.52,.67-.71,1.53-.5,2.36,.31,1.23,1.4,2.08,2.67,2.08h3.31c.96,0,1.86-.51,2.36-1.33l7.9-13.16c.46-.78,.44-1.76-.06-2.51Zm-1.23,1.74l-7.9,13.16c-.22,.37-.64,.61-1.07,.61h-3.31c-.57,0-1.07-.39-1.21-.95-.09-.38-.01-.77,.23-1.07,.24-.31,.6-.48,.99-.48h2.28c.98,0,1.9-.53,2.39-1.39l6.14-10.74c.15-.26,.41-.42,.71-.43,.31-.03,.57,.13,.74,.38,.18,.27,.19,.63,.02,.91Z"/><path class="v" d="M10.04,13v-1c0-.96-.79-1.75-1.75-1.75H4.29c-.96,0-1.75,.79-1.75,1.75v1c0,.96,.79,1.75,1.75,1.75h4c.96,0,1.75-.79,1.75-1.75Zm-6,0v-1c0-.14,.11-.25,.25-.25h4c.14,0,.25,.11,.25,.25v1c0,.14-.11,.25-.25,.25H4.29c-.14,0-.25-.11-.25-.25Z"/></g></g><g id="l"/><g id="m"/><g id="n"/><g id="o"/><g id="p"/><g id="q"/><g id="r"/><g id="s"/><g id="t"/><g id="u"/></svg>