<?xml version="1.0" encoding="UTF-8"?><svg xmlns="http://www.w3.org/2000/svg" viewBox="0 0 24 24"><defs><style>.v{fill:#231f20;}</style></defs><g id="a"/><g id="b"/><g id="c"/><g id="d"/><g id="e"/><g id="f"/><g id="g"/><g id="h"/><g id="i"/><g id="j"/><g id="k"/><g id="l"/><g id="m"/><g id="n"/><g id="o"/><g id="p"/><g id="q"/><g id="r"/><g id="s"><path class="v" d="M21.15,19.24c-.41-.08-.8,.18-.88,.58-.01,.07-.04,.13-.07,.18-.16,.23-.54,.25-.52,.25h-2.92v-1.5h1.32c.47,0,.91-.18,1.25-.52,.33-.33,.5-.77,.5-1.23,0-.4-.04-.75-.1-1.01-.38-1.8-1.86-2.85-5.24-4.67-.24-.13-.48-.27-.72-.41V4.97c0-.77-.32-1.52-.89-2.04-.53-.49-1.2-.73-1.93-.68-1.14,.1-2.11,.9-2.51,2h-1.43c-1.52,0-2.75,1.23-2.75,2.75v2.64s0,.07-.02,.11l-.81,1.73c-.11,.23-.16,.49-.16,.74v4.78c0,.96,.79,1.75,1.75,1.75h.25v1.5H3c-.41,0-.75,.34-.75,.75s.34,.75,.75,.75H19.71c.27-.01,1.19-.12,1.72-.91,.15-.22,.25-.46,.3-.72,.08-.41-.18-.8-.58-.89ZM11.08,3.75c.27-.01,.55,.08,.76,.28,.26,.24,.41,.59,.41,.94v5.06c-.73-.42-1.55-.88-2.5-1.34v-3.61c.11-.72,.66-1.28,1.33-1.34Zm-4.08,2h1.25v3.42c0,.29,.17,.56,.43,.68,1.39,.65,2.46,1.27,3.48,1.87,.54,.32,1.06,.62,1.59,.91,3.29,1.77,4.25,2.56,4.48,3.67,.04,.17,.06,.43,.06,.72,0,.08-.03,.13-.06,.16-.03,.03-.09,.07-.18,.07h-5.07c-.49,0-.95-.16-1.35-.45l-3.2-2.4s-.05-.02-.08-.04c-.04-.03-.09-.05-.14-.07-.05-.02-.1-.02-.15-.03-.03,0-.06-.02-.09-.02h-3.25v-2.03s0-.07,.02-.11l.65-1.39c.93,.32,1.55,1.21,1.79,1.62,.14,.24,.39,.37,.65,.37,.13,0,.26-.03,.38-.1,.36-.21,.48-.67,.26-1.03-.35-.59-1.27-1.89-2.76-2.32v-2.27c0-.69,.56-1.25,1.25-1.25Zm-2.25,11.25v-1.25h2.5v1.25c0,.14-.11,.25-.25,.25h-2c-.14,0-.25-.11-.25-.25Zm2,1.75h.25c.96,0,1.75-.79,1.75-1.75v-.5l2,1.5c.65,.49,1.43,.75,2.25,.75h2.25v1.5H6.75v-1.5Z"/></g><g id="t"/><g id="u"/></svg>