<?xml version="1.0" encoding="UTF-8"?><svg xmlns="http://www.w3.org/2000/svg" viewBox="0 0 24 24"><defs><style>.v{fill:#231f20;}</style></defs><g id="a"/><g id="b"/><g id="c"/><g id="d"><path class="v" d="M21,14.25h-2.25V7c0-2.07-1.68-3.75-3.75-3.75s-3.75,1.68-3.75,3.75v10c0,1.24-1.01,2.25-2.25,2.25s-2.25-1.01-2.25-2.25v-7.25h2.25c.41,0,.75-.34,.75-.75s-.34-.75-.75-.75h-.25v-3.25c0-1.52-1.23-2.75-2.75-2.75s-2.75,1.23-2.75,2.75v3.25h-.25c-.41,0-.75,.34-.75,.75s.34,.75,.75,.75h2.25v7.25c0,2.07,1.68,3.75,3.75,3.75s3.75-1.68,3.75-3.75V7c0-1.24,1.01-2.25,2.25-2.25s2.25,1.01,2.25,2.25v7.25h-2.25c-.41,0-.75,.34-.75,.75s.34,.75,.75,.75h.25v3.25c0,1.52,1.23,2.75,2.75,2.75s2.75-1.23,2.75-2.75v-3.25h.25c.41,0,.75-.34,.75-.75s-.34-.75-.75-.75ZM4.75,5c0-.69,.56-1.25,1.25-1.25s1.25,.56,1.25,1.25v3.25h-2.5v-3.25Zm14.5,14c0,.69-.56,1.25-1.25,1.25s-1.25-.56-1.25-1.25v-3.25h2.5v3.25Z"/></g><g id="e"/><g id="f"/><g id="g"/><g id="h"/><g id="i"/><g id="j"/><g id="k"/><g id="l"/><g id="m"/><g id="n"/><g id="o"/><g id="p"/><g id="q"/><g id="r"/><g id="s"/><g id="t"/><g id="u"/></svg>