<?xml version="1.0" encoding="UTF-8"?>
<svg id="pickleball" xmlns="http://www.w3.org/2000/svg" viewBox="0 0 24 24">
  <defs>
    <style>
      .cls-1 {
        stroke-width: 0px;
      }
    </style>
  </defs>
  <path class="cls-1" d="m20.65,7.59l-4.24-4.24c-1.46-1.46-3.84-1.46-5.3,0l-4.95,4.95c-1.01,1.01-1.36,2.48-.91,3.84l.24.72c.21.64-.67,2.43-1.46,3.22l-1.42,1.41c-.33.33-.51.77-.51,1.24s.18.91.51,1.24l1.41,1.41c.33.33.77.51,1.24.51h0c.47,0,.91-.18,1.24-.51l1.41-1.42c.79-.78,2.59-1.67,3.22-1.46l.72.24c.36.12.74.19,1.12.19.38,0,.75-.32.76-.74s-.32-.75-.74-.76c-.23,0-.45-.04-.67-.12l-.72-.24c-.61-.2-1.36-.08-2.08.19l-2.8-2.8c.27-.73.39-1.47.19-2.08l-.24-.72c-.27-.81-.06-1.7.54-2.3l4.95-4.95c.85-.85,2.33-.85,3.18,0l4.24,4.24c.56.56.79,1.39.59,2.16-.1.4.14.81.54.91.4.1.81-.14.91-.54.33-1.28-.04-2.66-.98-3.6Zm-12.54,10.38c-.54.33-.99.68-1.25.93l-1.41,1.42c-.06.06-.14.07-.18.07,0,0-.11,0-.18-.07l-1.42-1.42c-.06-.06-.07-.14-.07-.17s0-.11.07-.18l1.42-1.41c.25-.25.6-.71.93-1.25l2.08,2.08Z"/>
  <path class="cls-1" d="m17,11.25c-2.07,0-3.75,1.68-3.75,3.75s1.68,3.75,3.75,3.75,3.75-1.68,3.75-3.75-1.68-3.75-3.75-3.75Zm0,6c-1.24,0-2.25-1.01-2.25-2.25s1.01-2.25,2.25-2.25,2.25,1.01,2.25,2.25-1.01,2.25-2.25,2.25Z"/>
</svg>