<?xml version="1.0" encoding="UTF-8"?><svg xmlns="http://www.w3.org/2000/svg" viewBox="0 0 24 24"><defs><style>.v{fill:#231f20;}</style></defs><g id="a"/><g id="b"/><g id="c"/><g id="d"/><g id="e"/><g id="f"><g><path class="v" d="M21.08,15.25h-3c-.41,0-.75,.34-.75,.75s.34,.75,.75,.75h3c.41,0,.75-.34,.75-.75s-.34-.75-.75-.75Z"/><path class="v" d="M20.43,11.25c.08-.48-.04-.95-.33-1.34l-3.05-4.1h0c-.57-.76-1.61-.88-2.42-.29l-.43,.32c-.53,.39-.97,.82-1.29,1.28-.29,.41-.82,.95-1.65,1.17-.75,.2-1.41,.04-1.83-.13-.33-.13-.69-.12-1.02,.02-.33,.15-.58,.42-.7,.75l-1.82,4.97c-.04,.11-.13,.2-.23,.22-.72,.14-1.74,.51-2.52,1.51-.49,.63-.78,1.37-.86,2.18-.05,.5,.12,.99,.45,1.36,.33,.36,.8,.57,1.29,.57h3.6c1.21,0,2.36-.37,3.34-1.07l8.75-6.25c.39-.28,.65-.7,.73-1.17Zm-10.35,6.21c-.73,.52-1.58,.79-2.47,.79h-3.6c-.09,0-.15-.04-.18-.08-.03-.03-.08-.1-.07-.21,.05-.52,.24-.99,.55-1.4,.49-.63,1.15-.87,1.62-.96,.62-.12,1.14-.57,1.36-1.17l.04-.12,1.84,.58c.08,.02,.15,.04,.23,.04,.32,0,.61-.2,.72-.52,.12-.39-.09-.82-.49-.94l-1.78-.56,.23-.62,1.82,.53c.07,.02,.14,.03,.21,.03,.32,0,.62-.21,.72-.54,.12-.4-.11-.81-.51-.93l-1.72-.51,.46-1.25c.63,.22,1.54,.39,2.59,.12,1.27-.33,2.06-1.14,2.49-1.75,.23-.33,.55-.64,.95-.93l.43-.32s.23-.16,.33-.02l.99,1.33c-.11,1.11-.46,1.92-1.04,2.39-.38,.31-.75,.39-1.22,.5-.48,.11-1.02,.23-1.57,.63-1.18,.86-1.71,2.49-1.61,4.96l-1.31,.94Zm8.75-6.26l-5.94,4.25c.06-1.09,.3-2.17,.99-2.67,.3-.22,.62-.29,1.02-.38,.52-.12,1.18-.26,1.83-.8,.59-.48,1-1.15,1.28-1.97l.88,1.18c.06,.08,.06,.17,.05,.21,0,.04-.03,.13-.12,.19Z"/><path class="v" d="M19.08,18.25h-5c-.41,0-.75,.34-.75,.75s.34,.75,.75,.75h5c.41,0,.75-.34,.75-.75s-.34-.75-.75-.75Z"/></g></g><g id="g"/><g id="h"/><g id="i"/><g id="j"/><g id="k"/><g id="l"/><g id="m"/><g id="n"/><g id="o"/><g id="p"/><g id="q"/><g id="r"/><g id="s"/><g id="t"/><g id="u"/></svg>