<?xml version="1.0" encoding="UTF-8"?><svg xmlns="http://www.w3.org/2000/svg" viewBox="0 0 24 24"><defs><style>.v{fill:#231f20;}</style></defs><g id="a"/><g id="b"/><g id="c"/><g id="d"/><g id="e"/><g id="f"/><g id="g"/><g id="h"/><g id="i"/><g id="j"/><g id="k"/><g id="l"/><g id="m"/><g id="n"/><g id="o"/><g id="p"/><g id="q"/><g id="r"/><g id="s"/><g id="t"/><g id="u"><g><path class="v" d="M18.75,5.33v-.33c0-.41-.34-.75-.75-.75s-.75,.34-.75,.75v.25h-1.5v-.25c0-.41-.34-.75-.75-.75s-.75,.34-.75,.75v.25h-4.5v-.25c0-.41-.34-.75-.75-.75s-.75,.34-.75,.75v.25h-1.5v-.25c0-.41-.34-.75-.75-.75s-.75,.34-.75,.75v.33c-1.71,.35-3,1.86-3,3.67v6c0,2.07,1.68,3.75,3.75,3.75h12c2.07,0,3.75-1.68,3.75-3.75v-6c0-1.81-1.29-3.33-3-3.67ZM3.75,15v-6c0-.98,.63-1.8,1.5-2.11v.11c0,.41,.34,.75,.75,.75s.75-.34,.75-.75v-.25h1.5v.25c0,.41,.34,.75,.75,.75s.75-.34,.75-.75v-.25h1.5v10.5H6c-1.24,0-2.25-1.01-2.25-2.25Zm16.5,0c0,1.24-1.01,2.25-2.25,2.25h-5.25V6.75h1.5v.25c0,.41,.34,.75,.75,.75s.75-.34,.75-.75v-.25h1.5v.25c0,.41,.34,.75,.75,.75s.75-.34,.75-.75v-.11c.87,.31,1.5,1.14,1.5,2.11v6Z"/><path class="v" d="M7,12.75h1c.96,0,1.75-.79,1.75-1.75s-.79-1.75-1.75-1.75h-2c-.41,0-.75,.34-.75,.75s.34,.75,.75,.75h2c.14,0,.25,.11,.25,.25s-.11,.25-.25,.25h-1c-.96,0-1.75,.79-1.75,1.75v1c0,.96,.79,1.75,1.75,1.75h2c.41,0,.75-.34,.75-.75s-.34-.75-.75-.75h-2c-.14,0-.25-.11-.25-.25v-1c0-.14,.11-.25,.25-.25Z"/><path class="v" d="M18,9.25c-.41,0-.75,.34-.75,.75v2.25h-1.25c-.14,0-.25-.11-.25-.25v-2c0-.41-.34-.75-.75-.75s-.75,.34-.75,.75v2c0,.96,.79,1.75,1.75,1.75h1.25v1.25c0,.41,.34,.75,.75,.75s.75-.34,.75-.75v-5c0-.41-.34-.75-.75-.75Z"/></g></g></svg>