<?xml version="1.0" encoding="UTF-8"?><svg xmlns="http://www.w3.org/2000/svg" viewBox="0 0 24 24"><defs><style>.v{fill:#231f20;}</style></defs><g id="a"/><g id="b"/><g id="c"/><g id="d"/><g id="e"/><g id="f"/><g id="g"/><g id="h"/><g id="i"/><g id="j"/><g id="k"/><g id="l"/><g id="m"/><g id="n"/><g id="o"/><g id="p"><path class="v" d="M19.55,18.16c1.38-1.68,2.2-3.83,2.2-6.16,0-5.38-4.37-9.75-9.75-9.75S2.25,6.62,2.25,12s4.37,9.75,9.75,9.75c3.03,0,5.75-1.39,7.54-3.57h0Zm-2.53-5.04l-1.61-.94-.59-2.07,1.19-2.37h3s.03,0,.05-.01c.65,1.08,1.07,2.32,1.17,3.64l-3.21,1.76Zm-4.87,1.14s-.09-.03-.14-.03-.09,.02-.14,.03l-1.78-1.78,.56-1.75h2.79l.49,1.74-1.79,1.79Zm-5.08-1.18l-3.19-2.42c.17-1.06,.55-2.06,1.08-2.94,.02,0,.03,.01,.05,.01h3l1.24,2.48-.63,1.96-1.56,.91Zm-3.28-.6l2.23,1.69-1.16,1.9c-.62-1.07-.99-2.29-1.07-3.6Zm16.39,.63c-.16,1.14-.54,2.2-1.12,3.14l-1.04-1.96,2.16-1.18Zm-2.26-6.87h-1.92l-.48-1.71c.9,.42,1.71,1,2.4,1.71Zm-4.12-2.3l.88,3.13-1.09,2.17h-3.15l-1.09-2.17,.87-3.12c.58-.13,1.18-.2,1.79-.2s1.21,.07,1.78,.2Zm-5.3,.6l-.47,1.7h-1.91c.68-.7,1.49-1.28,2.39-1.7Zm-2.69,12.87l1.75-2.87,1.56-.91,2.15,2.15v1.87l-2.32,2c-1.22-.49-2.29-1.26-3.14-2.23Zm4.88,2.71l1.35-1.16,1.43,1.14c-.47,.08-.95,.13-1.44,.13-.45,0-.89-.05-1.33-.12Zm4.53-.53l-2.45-1.96v-1.85l2.15-2.15,1.54,.9,1.61,3.05c-.79,.86-1.76,1.55-2.85,2.01Z"/></g><g id="q"/><g id="r"/><g id="s"/><g id="t"/><g id="u"/></svg>