<?xml version="1.0" encoding="UTF-8"?><svg xmlns="http://www.w3.org/2000/svg" viewBox="0 0 24 24"><defs><style>.v{fill:#231f20;}</style></defs><g id="a"/><g id="b"/><g id="c"/><g id="d"/><g id="e"/><g id="f"/><g id="g"/><g id="h"/><g id="i"/><g id="j"/><g id="k"/><g id="l"><path class="v" d="M21.69,8.84h0c-.32-3.24-2.69-5.02-2.96-5.22-2.53-1.82-5.36-1.27-6.46-.95-2.4,.7-3.72,2.34-4.22,2.96-.38,.48-1.27,1.59-1.73,3.23,0,.01,0,.03-.01,.04-.11,.41-.21,.85-.25,1.32-.11,1.15,.05,2.32,.44,3.42l-3.18,2.35c-.69,.5-1.08,1.3-1.04,2.11,.05,.78,.46,1.31,1.04,1.98,.55,.64,1.08,1.25,2.06,1.51,.19,.05,.37,.07,.56,.07,.75,0,1.5-.37,2.01-1.01,.66-.85,1.8-2.29,2.38-3.03,.83,.35,1.71,.55,2.6,.57,1.5,.03,2.65-.45,3.08-.63,2.43-1.04,6.11-4.32,5.67-8.72Zm-11.21,7.18c-.32-.17-.72-.09-.95,.2,0,0-1.84,2.33-2.76,3.51-.26,.34-.68,.5-1.03,.41-.48-.13-.77-.44-1.28-1.03-.56-.65-.66-.86-.68-1.11-.02-.28,.15-.59,.43-.79l3.65-2.69c.28-.21,.38-.59,.24-.91-.29-.64-.58-1.64-.55-2.83l5.85,5.9c-.14,0-.28,.03-.43,.02-.86-.02-1.72-.25-2.5-.67Zm4.95,.16c-.07,.03-.18,.07-.28,.11l-7.28-7.34c.39-1.17,1.03-1.97,1.36-2.37,.42-.52,1.53-1.89,3.48-2.46,.41-.12,1.1-.28,1.93-.28,.98,0,2.15,.22,3.23,1,.08,.06,2.08,1.52,2.34,4.15,.34,3.41-2.58,6.25-4.77,7.19Z"/></g><g id="m"/><g id="n"/><g id="o"/><g id="p"/><g id="q"/><g id="r"/><g id="s"/><g id="t"/><g id="u"/></svg>