<?xml version="1.0" encoding="UTF-8"?><svg xmlns="http://www.w3.org/2000/svg" viewBox="0 0 24 24"><defs><style>.v{fill:#231f20;}</style></defs><g id="a"/><g id="b"/><g id="c"/><g id="d"/><g id="e"/><g id="f"/><g id="g"/><g id="h"/><g id="i"><path class="v" d="M18.89,5.11c-3.8-3.8-9.99-3.8-13.79,0-1.84,1.84-2.86,4.29-2.86,6.89s1.01,5.05,2.86,6.89c1.9,1.9,4.4,2.85,6.89,2.85s4.99-.95,6.89-2.85c3.8-3.8,3.8-9.99,0-13.79Zm-12.73,1.06c1.61-1.61,3.72-2.41,5.83-2.41,.22,0,.43,.01,.65,.03-.02,3.4-1.98,5.65-2.6,6.27-2.33,2.33-5.15,2.6-6.27,2.61-.02-.22-.03-.44-.03-.66,0-2.2,.86-4.28,2.42-5.83Zm-2.12,7.99c1.45-.06,4.53-.5,7.07-3.04,.71-.71,2.93-3.24,3.04-7.07,1.35,.36,2.62,1.06,3.68,2.12s1.76,2.33,2.12,3.68c-3.87,.12-6.36,2.33-7.07,3.04-2.54,2.54-2.99,5.61-3.04,7.07-1.35-.36-2.62-1.06-3.67-2.12s-1.75-2.3-2.12-3.68Zm13.79,3.68c-1.78,1.78-4.17,2.57-6.5,2.38,0-1.12,.28-3.94,2.61-6.27,.62-.62,2.88-2.57,6.27-2.6,.18,2.32-.61,4.71-2.38,6.49Z"/></g><g id="j"/><g id="k"/><g id="l"/><g id="m"/><g id="n"/><g id="o"/><g id="p"/><g id="q"/><g id="r"/><g id="s"/><g id="t"/><g id="u"/></svg>